<svg id="visual" viewBox="0 0 960 540" width="960" height="540" xmlns="http://www.w3.org/2000/svg" xmlns:xlink="http://www.w3.org/1999/xlink" version="1.1"><rect x="0" y="0" width="960" height="540" fill="#001220"></rect><path d="M0 339L22.8 338.5C45.7 338 91.3 337 137 333.8C182.7 330.7 228.3 325.3 274 328.5C319.7 331.7 365.3 343.3 411.2 353.8C457 364.3 503 373.7 548.8 377C594.7 380.3 640.3 377.7 686 366.7C731.7 355.7 777.3 336.3 823 327C868.7 317.7 914.3 318.3 937.2 318.7L960 319L960 541L937.2 541C914.3 541 868.7 541 823 541C777.3 541 731.7 541 686 541C640.3 541 594.7 541 548.8 541C503 541 457 541 411.2 541C365.3 541 319.7 541 274 541C228.3 541 182.7 541 137 541C91.3 541 45.7 541 22.8 541L0 541Z" fill="#00aa00"></path><path d="M0 410L22.8 412.3C45.7 414.7 91.3 419.3 137 410.2C182.7 401 228.3 378 274 378.8C319.7 379.7 365.3 404.3 411.2 409.3C457 414.3 503 399.7 548.8 395.7C594.7 391.7 640.3 398.3 686 399.7C731.7 401 777.3 397 823 397C868.7 397 914.3 401 937.2 403L960 405L960 541L937.2 541C914.3 541 868.7 541 823 541C777.3 541 731.7 541 686 541C640.3 541 594.7 541 548.8 541C503 541 457 541 411.2 541C365.3 541 319.7 541 274 541C228.3 541 182.7 541 137 541C91.3 541 45.7 541 22.8 541L0 541Z" fill="#385e2e"></path><path d="M0 426L22.8 431.3C45.7 436.7 91.3 447.3 137 446.2C182.7 445 228.3 432 274 422.3C319.7 412.7 365.3 406.3 411.2 408C457 409.7 503 419.3 548.8 420.2C594.7 421 640.3 413 686 418C731.7 423 777.3 441 823 442.8C868.7 444.7 914.3 430.3 937.2 423.2L960 416L960 541L937.2 541C914.3 541 868.7 541 823 541C777.3 541 731.7 541 686 541C640.3 541 594.7 541 548.8 541C503 541 457 541 411.2 541C365.3 541 319.7 541 274 541C228.3 541 182.7 541 137 541C91.3 541 45.7 541 22.8 541L0 541Z" fill="#333333"></path><path d="M0 439L22.8 441C45.7 443 91.3 447 137 453.3C182.7 459.7 228.3 468.3 274 470.7C319.7 473 365.3 469 411.2 467.8C457 466.7 503 468.3 548.8 465.7C594.7 463 640.3 456 686 452.2C731.7 448.3 777.3 447.7 823 450.3C868.7 453 914.3 459 937.2 462L960 465L960 541L937.2 541C914.3 541 868.7 541 823 541C777.3 541 731.7 541 686 541C640.3 541 594.7 541 548.8 541C503 541 457 541 411.2 541C365.3 541 319.7 541 274 541C228.3 541 182.7 541 137 541C91.3 541 45.7 541 22.8 541L0 541Z" fill="#385e2e"></path><path d="M0 507L22.8 502.7C45.7 498.3 91.3 489.7 137 487C182.7 484.3 228.3 487.7 274 486.2C319.7 484.7 365.3 478.3 411.2 476C457 473.7 503 475.3 548.8 478.8C594.7 482.3 640.3 487.7 686 486.8C731.7 486 777.3 479 823 476.7C868.7 474.3 914.3 476.7 937.2 477.8L960 479L960 541L937.2 541C914.3 541 868.7 541 823 541C777.3 541 731.7 541 686 541C640.3 541 594.7 541 548.8 541C503 541 457 541 411.2 541C365.3 541 319.7 541 274 541C228.3 541 182.7 541 137 541C91.3 541 45.7 541 22.8 541L0 541Z" fill="#00aa00"></path></svg>